<?xml version="1.0" encoding="UTF-8"?>
<svg width="800" height="600" viewBox="0 0 800 600" xmlns="http://www.w3.org/2000/svg">
  <!-- Background with gradient (night city) -->
  <rect width="800" height="600" fill="#0d1b2a"/>
  
  <!-- City skyline -->
  <rect x="50" y="200" width="60" height="300" fill="#1b263b"/>
  <rect x="110" y="250" width="80" height="250" fill="#1b263b"/>
  <rect x="190" y="150" width="70" height="350" fill="#1b263b"/>
  <rect x="280" y="220" width="90" height="280" fill="#1b263b"/>
  <rect x="390" y="180" width="90" height="320" fill="#1b263b"/>
  <rect x="500" y="100" width="70" height="400" fill="#1b263b"/>
  <rect x="590" y="230" width="60" height="270" fill="#1b263b"/>
  <rect x="670" y="170" width="100" height="330" fill="#1b263b"/>
  
  <!-- Windows in buildings (lit up) -->
  <!-- Building 1 -->
  <rect x="60" y="220" width="15" height="20" fill="#f7ca18" opacity="0.8"/>
  <rect x="85" y="220" width="15" height="20" fill="#f7ca18" opacity="0.8"/>
  <rect x="60" y="260" width="15" height="20" fill="#f7ca18" opacity="0.8"/>
  <rect x="85" y="260" width="15" height="20" fill="#f7ca18" opacity="0.2"/>
  <rect x="60" y="300" width="15" height="20" fill="#f7ca18" opacity="0.8"/>
  <rect x="85" y="300" width="15" height="20" fill="#f7ca18" opacity="0.8"/>
  <rect x="60" y="340" width="15" height="20" fill="#f7ca18" opacity="0.2"/>
  <rect x="85" y="340" width="15" height="20" fill="#f7ca18" opacity="0.8"/>
  <rect x="60" y="380" width="15" height="20" fill="#f7ca18" opacity="0.8"/>
  <rect x="85" y="380" width="15" height="20" fill="#f7ca18" opacity="0.2"/>
  <rect x="60" y="420" width="15" height="20" fill="#f7ca18" opacity="0.2"/>
  <rect x="85" y="420" width="15" height="20" fill="#f7ca18" opacity="0.8"/>
  <rect x="60" y="460" width="15" height="20" fill="#f7ca18" opacity="0.8"/>
  <rect x="85" y="460" width="15" height="20" fill="#f7ca18" opacity="0.8"/>
  
  <!-- Building 2 -->
  <rect x="120" y="270" width="15" height="20" fill="#f7ca18" opacity="0.2"/>
  <rect x="145" y="270" width="15" height="20" fill="#f7ca18" opacity="0.8"/>
  <rect x="170" y="270" width="15" height="20" fill="#f7ca18" opacity="0.8"/>
  <rect x="120" y="310" width="15" height="20" fill="#f7ca18" opacity="0.8"/>
  <rect x="145" y="310" width="15" height="20" fill="#f7ca18" opacity="0.2"/>
  <rect x="170" y="310" width="15" height="20" fill="#f7ca18" opacity="0.8"/>
  <rect x="120" y="350" width="15" height="20" fill="#f7ca18" opacity="0.8"/>
  <rect x="145" y="350" width="15" height="20" fill="#f7ca18" opacity="0.8"/>
  <rect x="170" y="350" width="15" height="20" fill="#f7ca18" opacity="0.2"/>
  <rect x="120" y="390" width="15" height="20" fill="#f7ca18" opacity="0.2"/>
  <rect x="145" y="390" width="15" height="20" fill="#f7ca18" opacity="0.8"/>
  <rect x="170" y="390" width="15" height="20" fill="#f7ca18" opacity="0.8"/>
  <rect x="120" y="430" width="15" height="20" fill="#f7ca18" opacity="0.8"/>
  <rect x="145" y="430" width="15" height="20" fill="#f7ca18" opacity="0.2"/>
  <rect x="170" y="430" width="15" height="20" fill="#f7ca18" opacity="0.8"/>
  <rect x="120" y="470" width="15" height="20" fill="#f7ca18" opacity="0.8"/>
  <rect x="145" y="470" width="15" height="20" fill="#f7ca18" opacity="0.8"/>
  <rect x="170" y="470" width="15" height="20" fill="#f7ca18" opacity="0.2"/>
  
  <!-- Featured building (our apartment) -->
  <!-- Main structure -->
  <rect x="300" y="100" width="200" height="400" fill="#415a77" stroke="#778da9" stroke-width="2"/>
  
  <!-- Windows - regular pattern -->
  <rect x="320" y="120" width="30" height="40" fill="#e0fbfc" opacity="0.9"/>
  <rect x="370" y="120" width="30" height="40" fill="#e0fbfc" opacity="0.9"/>
  <rect x="420" y="120" width="30" height="40" fill="#e0fbfc" opacity="0.9"/>
  <rect x="450" y="120" width="30" height="40" fill="#e0fbfc" opacity="0.9"/>
  
  <rect x="320" y="180" width="30" height="40" fill="#e0fbfc" opacity="0.9"/>
  <rect x="370" y="180" width="30" height="40" fill="#e0fbfc" opacity="0.9"/>
  <rect x="420" y="180" width="30" height="40" fill="#e0fbfc" opacity="0.9"/>
  <rect x="450" y="180" width="30" height="40" fill="#e0fbfc" opacity="0.9"/>
  
  <rect x="320" y="240" width="30" height="40" fill="#e0fbfc" opacity="0.9"/>
  <rect x="370" y="240" width="30" height="40" fill="#e0fbfc" opacity="0.9"/>
  <rect x="420" y="240" width="30" height="40" fill="#e0fbfc" opacity="0.9"/>
  <rect x="450" y="240" width="30" height="40" fill="#e0fbfc" opacity="0.9"/>
  
  <rect x="320" y="300" width="30" height="40" fill="#e0fbfc" opacity="0.9"/>
  <rect x="370" y="300" width="30" height="40" fill="#e0fbfc" opacity="0.9"/>
  <rect x="420" y="300" width="30" height="40" fill="#e0fbfc" opacity="0.9"/>
  <rect x="450" y="300" width="30" height="40" fill="#e0fbfc" opacity="0.9"/>
  
  <!-- Entrance -->
  <rect x="370" y="400" width="60" height="100" fill="#e0fbfc" opacity="0.7"/>
  <rect x="390" y="440" width="20" height="60" fill="#415a77"/>
  
  <!-- Balconies -->
  <rect x="290" y="140" width="10" height="320" fill="#778da9"/>
  <rect x="500" y="140" width="10" height="320" fill="#778da9"/>
  <line x1="290" y1="180" x2="300" y2="180" stroke="#778da9" stroke-width="2"/>
  <line x1="290" y1="220" x2="300" y2="220" stroke="#778da9" stroke-width="2"/>
  <line x1="290" y1="260" x2="300" y2="260" stroke="#778da9" stroke-width="2"/>
  <line x1="290" y1="300" x2="300" y2="300" stroke="#778da9" stroke-width="2"/>
  <line x1="290" y1="340" x2="300" y2="340" stroke="#778da9" stroke-width="2"/>
  <line x1="290" y1="380" x2="300" y2="380" stroke="#778da9" stroke-width="2"/>
  <line x1="290" y1="420" x2="300" y2="420" stroke="#778da9" stroke-width="2"/>
  <line x1="500" y1="180" x2="510" y2="180" stroke="#778da9" stroke-width="2"/>
  <line x1="500" y1="220" x2="510" y2="220" stroke="#778da9" stroke-width="2"/>
  <line x1="500" y1="260" x2="510" y2="260" stroke="#778da9" stroke-width="2"/>
  <line x1="500" y1="300" x2="510" y2="300" stroke="#778da9" stroke-width="2"/>
  <line x1="500" y1="340" x2="510" y2="340" stroke="#778da9" stroke-width="2"/>
  <line x1="500" y1="380" x2="510" y2="380" stroke="#778da9" stroke-width="2"/>
  <line x1="500" y1="420" x2="510" y2="420" stroke="#778da9" stroke-width="2"/>
  
  <!-- Roof details -->
  <rect x="280" y="90" width="240" height="10" fill="#778da9"/>
  
  <!-- Road -->
  <rect x="0" y="500" width="800" height="100" fill="#1b263b"/>
  <line x1="0" y1="550" x2="800" y2="550" stroke="#f7ca18" stroke-width="4" stroke-dasharray="20,20"/>
  
  <!-- Street lights -->
  <line x1="150" y1="500" x2="150" y2="460" stroke="#778da9" stroke-width="5"/>
  <circle cx="150" cy="450" r="10" fill="#f7ca18" opacity="0.8"/>
  <line x1="350" y1="500" x2="350" y2="460" stroke="#778da9" stroke-width="5"/>
  <circle cx="350" cy="450" r="10" fill="#f7ca18" opacity="0.8"/>
  <line x1="550" y1="500" x2="550" y2="460" stroke="#778da9" stroke-width="5"/>
  <circle cx="550" cy="450" r="10" fill="#f7ca18" opacity="0.8"/>
  <line x1="750" y1="500" x2="750" y2="460" stroke="#778da9" stroke-width="5"/>
  <circle cx="750" cy="450" r="10" fill="#f7ca18" opacity="0.8"/>
  
  <!-- Moon -->
  <circle cx="100" cy="100" r="40" fill="#99a8b2" opacity="0.8"/>
  <circle cx="85" cy="85" r="15" fill="#e0fbfc" opacity="0.5"/>
  
  <!-- Title -->
  <text x="400" y="580" font-family="Arial" font-size="28" text-anchor="middle" fill="white">شقة فاخرة وسط المدينة</text>
</svg>